@startuml
left to right direction
 skinparam interface {
backgroundColor lightgrey
borderColor grey
}
skinparam boundary {
backgroundColor lightgrey
borderColor grey
}
skinparam entity {
backgroundColor #f44336
borderColor #b71c1c
}
skinparam component {
ArrowColor #339900
ArrowFontColor #666666
borderColor #448AFF
}
skinparam agent {
ArrowFontColor #666666
borderColor #999999
}



component "ddemo-component" as main #FAFAFA{


frame "Events " as bounds {
boundary "fire" as fireFire #white
boundary "fireBu-bbleeee" as firebubbleFirebuBbleeee #81C784
boundary "fireBubbleeee" as firebubbleFirebubbleeee #81C784

fireFire .. firebubbleFirebuBbleeee #white
firebubbleFirebuBbleeee .. firebubbleFirebubbleeee #white
}

frame "Incomming Values " as valuesIn {
boundary "val" as valBoundIn #white

}

frame "Outgoing Values " as valuesOut {
boundary "val" as valBoundOut #white

}

agent _response as valueelement_response #white
component ironAjax #white

component valueObserver #white
agent test as valueelementtest #white

component valueObserver2 #white
component valueObserver3 #white
component valueObserver4 #white
component button #white


agent testb as valueelementtestb #white
interface set as interfaceVal
interface change as interfaceValC  #white



interfaceVal .. valueelementtestb
valueelementtestb .. interfaceValC
interfaceValC ..> valBoundOut
valBoundIn ..> interfaceVal


interface generaterequest as interfaceGeneraterequestironAjax  #white
interfaceGeneraterequestironAjax .. ironAjax #616161
interface valuechanged as interfaceValuechangedvalueObserver  #white
interfaceValuechangedvalueObserver .. valueObserver #616161
interface response as interfaceResponseironAjax #ECEFF1
ironAjax .. interfaceResponseironAjax #616161
interfaceResponseironAjax --> valueelement_response #FF6F00
interface setTheValue as interfaceSetTheValuevalueObserver #ECEFF1
valueObserver .. interfaceSetTheValuevalueObserver #616161
interfaceSetTheValuevalueObserver --> valueelementtestb #FF6F00
interfaceSetTheValuevalueObserver --> valueelementtest #FF6F00
interface valueChanged as interfaceValueChangedvalueObserver2 #ECEFF1
valueObserver2 .. interfaceValueChangedvalueObserver2 #616161
interfaceValueChangedvalueObserver2 -> fireFire #FF5722
interface valueChanged as interfaceValueChangedvalueObserver3 #ECEFF1
valueObserver3 .. interfaceValueChangedvalueObserver3 #616161
interfaceValueChangedvalueObserver3 -> firebubbleFirebuBbleeee #DD2C00
interface valueChanged as interfaceValueChangedvalueObserver4 #ECEFF1
valueObserver4 .. interfaceValueChangedvalueObserver4 #616161
interfaceValueChangedvalueObserver4 -> firebubbleFirebubbleeee #DD2C00
interface tap as interfaceTapbutton #ECEFF1
button .. interfaceTapbutton #616161
entity "no Target" as XXXXXnirvanaXXXXX
interfaceSetTheValuevalueObserver --->  XXXXXnirvanaXXXXX  #d50000 :--f4
interfaceSetTheValuevalueObserver --->  XXXXXnirvanaXXXXX  #d50000 :--kappute-verbindung
interfaceTapbutton --> interfaceGeneraterequestironAjax :connectorButtonRequestAjax
interfaceTapbutton --> interfaceValuechangedvalueObserver :connectorButtonRequestAjax
}

@enduml
