@startuml
left to right direction
 skinparam interface {
backgroundColor lightgrey
borderColor grey
}
skinparam boundary {
backgroundColor lightgrey
borderColor grey
}
skinparam entity {
backgroundColor #f44336
borderColor #b71c1c
}
skinparam component {
ArrowColor #339900
ArrowFontColor #666666
borderColor #448AFF
}
skinparam agent {
ArrowFontColor #666666
borderColor #999999
}
component "ddemo-component" #FAFAFA{
agent _response as valueelement_response #white
component ironAjax #white
agent testb as valueelementtestb #white
component valueObserver #white
agent test as valueelementtest #white
boundary "fire" as fireFire #white
component valueObserver2 #white
boundary "fireBu-bbleeee" as firebubbleFirebuBbleeee #81C784
component valueObserver3 #white
boundary "fireBubbleeee" as firebubbleFirebubbleeee #81C784
component valueObserver4 #white
component button #white
interface generaterequest as interfaceGeneraterequestironAjax  #white
interfaceGeneraterequestironAjax .. ironAjax #616161
interface valuechanged as interfaceValuechangedvalueObserver  #white
interfaceValuechangedvalueObserver .. valueObserver #616161
interface response as interfaceResponseironAjax #ECEFF1
ironAjax .. interfaceResponseironAjax #616161
interfaceResponseironAjax --> valueelement_response #FF6F00
interface setTheValue as interfaceSetTheValuevalueObserver #ECEFF1
valueObserver .. interfaceSetTheValuevalueObserver #616161
interfaceSetTheValuevalueObserver --> valueelementtestb #FF6F00
interfaceSetTheValuevalueObserver --> valueelementtest #FF6F00
interface valueChanged as interfaceValueChangedvalueObserver2 #ECEFF1
valueObserver2 .. interfaceValueChangedvalueObserver2 #616161
interfaceValueChangedvalueObserver2 ..> fireFire #FF5722
interface valueChanged as interfaceValueChangedvalueObserver3 #ECEFF1
valueObserver3 .. interfaceValueChangedvalueObserver3 #616161
interfaceValueChangedvalueObserver3 --> firebubbleFirebuBbleeee #DD2C00
interface valueChanged as interfaceValueChangedvalueObserver4 #ECEFF1
valueObserver4 .. interfaceValueChangedvalueObserver4 #616161
interfaceValueChangedvalueObserver4 --> firebubbleFirebubbleeee #DD2C00
interface tap as interfaceTapbutton #ECEFF1
button .. interfaceTapbutton #616161
entity "no Target" as XXXXXnirvanaXXXXX
interfaceSetTheValuevalueObserver --->  XXXXXnirvanaXXXXX  #d50000 :--f4
interfaceSetTheValuevalueObserver --->  XXXXXnirvanaXXXXX  #d50000 :--kappute-verbindung
interfaceTapbutton --> interfaceGeneraterequestironAjax :connectorButtonRequestAjax
interfaceTapbutton --> interfaceValuechangedvalueObserver :connectorButtonRequestAjax
@enduml
